<svg version="1.1" id="Layer_1" xmlns="http://www.w3.org/2000/svg" xmlns:xlink="http://www.w3.org/1999/xlink" x="0px" y="0px" viewBox="0 0 57.1 56.6" style="enable-background:new 0 0 57.1 56.6;" xml:space="preserve">
 <style type="text/css">
  .st0{fill:#347DA2;}
 </style>
 <g>
  <path class="st0" d="M36.9,15.8l-33,0L0,19.7h0l0,0v17.2c0,10,7.6,18.3,17.6,19.5l3.7-3.8l-1.1,0C11.3,52.6,4,45.6,4,36.9V19.7h4
		l0,17.2c0,6.5,5.4,11.8,12.1,11.8h5.1l3.9-3.9h-9c-4.5,0-8.1-3.5-8.1-7.9V19.7h4v17.2c0,2.2,1.8,3.9,4,3.9H33l3.9-3.9l-16.7,0V19.7
		h16.8v36.9h4l0-36.9C41,17.5,39.2,15.8,36.9,15.8 M57.1,56.6V19.7C57.1,8.8,48.1,0,36.9,0H19.5l-3.9,3.9l21.3,0
		c8.9,0,16.1,7.1,16.1,15.8v36.9H57.1z M36.9,7.9l-25.2,0l-3.9,3.9l29.1,0c4.5,0,8,3.5,8,7.9v36.9h4l0-36.9
		C49,13.2,43.6,7.9,36.9,7.9">
  </path>
 </g>
</svg>